<?xml version="1.0" encoding="utf-8"?>
<!-- Generator: Adobe Illustrator 26.4.1, SVG Export Plug-In . SVG Version: 6.00 Build 0)  -->
<svg version="1.0" id="katman_1" xmlns="http://www.w3.org/2000/svg" xmlns:xlink="http://www.w3.org/1999/xlink" x="0px" y="0px"
	 viewBox="0 0 795.6 215.8" style="enable-background:new 0 0 795.6 215.8;" xml:space="preserve">
<style type="text/css">
	.st0{fill:#F3BA2F;}
</style>
<desc>Created with Sketch.</desc>
<g>
	<path id="Shape" class="st0" d="M222,26h36.6c9.3,0,16.1,2.5,20.5,6.8c4.3,3.7,6.2,8.7,6.2,13.6l0,0c0,1.9,0,4.3-0.6,6.2
		c-1.2,3.1-3.1,6.2-5.6,8.7c-1.2,1.2-2.5,1.9-3.7,2.5c4.3,1.2,8.1,3.7,11.2,6.8c2.5,3.1,3.7,6.8,3.7,12.4l0,0c0,3.1-0.6,6.8-1.9,9.3
		c-1.2,2.5-3.7,5-6.2,6.8c-3.1,1.9-6.2,3.1-9.3,4.3c-3.7,1.2-8.1,1.2-12.4,1.2h-37.8V26H222z M255.5,58.3c3.1,0,6.2-0.6,9.3-1.9
		c2.5-1.2,3.7-3.7,3.7-6.2l0,0c0-2.5-1.2-5-3.1-6.2c-2.5-1.9-5.6-2.5-8.7-1.9h-17.4v16.7h16.1V58.3z M259.8,89.9
		c3.1,0,6.2-0.6,9.3-1.9c2.5-1.2,3.7-3.7,3.1-6.8l0,0c0-2.5-1.2-5-3.1-6.2c-1.9-1.2-5.6-2.5-9.9-2.5h-20.5v17.4H259.8z"/>
	<polygon id="Path" class="st0" points="311.9,26 329.3,26 329.3,105.4 311.9,105.4 	"/>
	<polygon id="Path_1_" class="st0" points="355.9,26 372.1,26 409.3,75 409.3,26 426.6,26 426.6,105.4 411.7,105.4 372.7,55.2 
		372.7,105.4 355.9,105.4 	"/>
	<path id="Shape_1_" class="st0" d="M479.3,25.4h16.1l34.1,80h-18l-7.4-18h-33.5l-7.4,18h-18L479.3,25.4z M497.9,72.6l-10.5-26
		l-10.5,26H497.9z"/>
	<polygon id="Path_2_" class="st0" points="548.2,26 564.3,26 601.5,75 601.5,26 618.9,26 618.9,105.4 604,105.4 565.5,55.2 
		565.5,105.4 548.2,105.4 	"/>
	<path id="Path_3_" class="st0" d="M682.1,106.7c-5.6,0-11.2-1.2-16.1-3.1c-9.9-4.3-17.4-11.8-21.7-21.7c-1.9-5-3.1-10.5-3.1-16.1
		l0,0c0-10.5,4.3-21.1,11.8-29.1c3.7-3.7,8.1-6.8,13-8.7c5.6-2.5,11.2-3.1,16.7-3.1c3.1,0,6.8,0,9.9,0.6c3.1,0.6,5.6,1.2,8.1,2.5
		c2.5,1.2,5,2.5,6.8,3.7c1.9,1.2,4.3,3.1,6.2,5l-10.5,13c-3.1-2.5-6.2-5-9.3-6.8c-3.1-1.9-6.8-2.5-10.5-2.5c-3.1,0-6.2,0.6-9.3,1.9
		c-3.1,1.2-5.6,3.1-7.4,5.6c-1.9,2.5-3.7,5-5,8.1c-1.2,3.1-1.9,6.2-1.9,9.3l0,0c0,3.1,0.6,6.8,1.9,9.9c1.2,3.1,2.5,5.6,5,8.1
		c4.3,5,10.5,7.4,16.7,7.4c3.7,0,8.1-0.6,11.8-2.5c3.1-1.9,6.8-4.3,9.3-6.8l11.2,11.2c-1.9,1.9-4.3,4.3-6.2,6.2
		c-2.5,1.9-5,3.1-7.4,4.3c-2.5,1.2-5.6,2.5-8.7,3.1C688.9,106.7,685.2,106.7,682.1,106.7L682.1,106.7z"/>
	<polygon id="Path_4_" class="st0" points="735.4,26 795,26 795,41.5 752.2,41.5 752.2,57.7 790,57.7 790,73.2 752.2,73.2 
		752.2,89.9 795.6,89.9 795.6,105.4 735.4,105.4 	"/>
	<path id="Path_5_" class="st0" d="M244.3,183.5c-4.3,0-8.7-0.6-12.4-2.5c-3.7-1.2-7.4-3.7-11.2-6.8l6.2-6.8c2.5,2.5,5,3.7,8.1,5.6
		c3.1,1.2,6.2,1.9,9.3,1.9c2.5,0,5-0.6,7.4-1.9c1.9-1.2,2.5-3.1,2.5-5l0,0c0-0.6,0-1.9-0.6-2.5c-0.6-0.6-1.2-1.9-1.9-2.5
		c-1.2-0.6-2.5-1.2-3.7-1.9c-1.9-0.6-4.3-1.2-6.2-1.9c-2.5-0.6-5.6-1.2-8.1-2.5c-1.9-0.6-4.3-1.9-5.6-3.1c-1.2-1.2-2.5-2.5-3.7-4.3
		c-1.2-2.5-1.2-5-1.2-6.8l0,0c0-2.5,0.6-4.3,1.2-6.8c0.6-1.9,2.5-3.7,3.7-5c1.9-1.2,3.7-2.5,6.2-3.1c2.5-0.6,5-1.2,7.4-1.2
		c3.7,0,7.4,0.6,11.2,1.9c3.1,1.2,6.2,3.1,9.3,5l-5,7.4c-2.5-1.9-5-3.1-7.4-4.3c-2.5-1.2-5-1.2-7.4-1.2c-2.5,0-5,0.6-6.8,1.9
		c-1.2,1.2-2.5,3.1-2.5,5l0,0c0,1.2,0,1.9,0.6,3.1c0.6,0.6,1.2,1.9,1.9,2.5c1.2,0.6,2.5,1.2,4.3,1.9c1.9,0.6,3.7,1.2,6.8,1.9
		c2.5,0.6,5,1.2,8.1,2.5c1.9,0.6,3.7,1.9,5.6,3.1c1.2,1.2,2.5,3.1,3.1,4.3c0.6,1.9,1.2,3.7,1.2,6.2l0,0c0,2.5-0.6,5-1.2,6.8
		c-1.2,1.9-2.5,3.7-4.3,5.6c-1.9,1.2-3.7,2.5-6.2,3.1C249.9,182.9,246.8,183.5,244.3,183.5z"/>
	<polygon id="Path_6_" class="st0" points="275.3,127.1 285.9,127.1 302.6,153.2 320,127.1 330.5,127.1 330.5,182.9 320.6,182.9 
		320.6,142.6 303.2,168.7 302.6,168.7 285.2,142.6 285.2,182.9 275.3,182.9 	"/>
	<path id="Shape_2_" class="st0" d="M364,126.5h9.3l24.2,55.8h-10.5l-5.6-13.6h-26l-5.6,13.6h-9.9L364,126.5z M378.3,160.6
		l-9.9-22.3l-9.3,22.3H378.3z"/>
	<path id="Shape_3_" class="st0" d="M407.4,127.1h24.8c3.1,0,6.2,0.6,9.3,1.2c2.5,0.6,5,2.5,6.8,4.3c1.2,1.2,2.5,3.1,3.7,5.6
		c0.6,1.9,1.2,4.3,1.2,6.8l0,0c0,1.9-0.6,4.3-1.2,6.2s-1.9,3.1-2.5,5c-1.2,1.2-2.5,2.5-4.3,3.7c-1.9,1.2-3.7,1.9-5.6,2.5l14.9,21.1
		h-11.8l-13.6-19.2h-12.4v19.2h-9.9L407.4,127.1z M431.6,154.4c3.1,0,6.2-0.6,8.1-2.5s3.1-4.3,3.1-6.8l0,0c0-2.5-1.2-5-3.1-6.8
		c-2.5-1.9-5.6-2.5-8.7-2.5h-14.3v18.6H431.6z"/>
	<polygon id="Path_7_" class="st0" points="478.7,135.8 460.7,135.8 460.7,127.1 506,127.1 506,135.8 488,135.8 488,182.9 
		478.1,182.9 	"/>
	<path id="Path_8_" class="st0" d="M566.1,183.5c-3.7,0-7.4-0.6-11.2-2.5c-6.8-3.1-12.4-8.1-14.9-14.9c-1.2-3.7-2.5-7.4-1.9-11.2
		l0,0c0-3.7,0.6-7.4,1.9-11.2c2.5-6.8,8.1-12.4,14.9-15.5c3.7-1.2,7.4-2.5,11.8-2.5c2.5,0,5,0,6.8,0.6c1.9,0.6,3.7,1.2,5.6,1.9
		c1.9,0.6,3.1,1.9,5,2.5c1.2,1.2,3.1,2.5,4.3,3.7l-6.2,7.4c-1.9-1.9-4.3-3.7-6.8-5c-2.5-1.2-5.6-1.9-8.7-1.9c-2.5,0-5,0.6-7.4,1.2
		c-2.5,1.2-4.3,2.5-6.2,4.3c-1.9,1.9-3.1,3.7-3.7,6.2c-0.6,2.5-1.2,5-1.2,7.4l0,0c0,2.5,0.6,5,1.2,7.4c0.6,2.5,1.9,4.3,3.7,6.2
		c1.9,1.9,3.7,3.1,6.2,4.3c2.5,1.2,5,1.9,7.4,1.2c3.1,0,6.2-0.6,8.7-1.9c2.5-1.2,5-3.1,7.4-5.6l6.2,6.2c-1.2,1.2-3.1,3.1-4.3,4.3
		c-1.9,1.2-3.1,2.5-5,3.1c-1.9,0.6-3.7,1.9-6.2,1.9C571.1,183.5,568.6,183.5,566.1,183.5L566.1,183.5z"/>
	<polygon id="Path_9_" class="st0" points="599,127.1 608.3,127.1 608.3,150.1 635,150.1 635,127.1 644.9,127.1 644.9,182.9 
		635,182.9 635,159.4 608.3,159.4 608.3,182.9 599,182.9 	"/>
	<path id="Shape_4_" class="st0" d="M679,126.5h9.3l24.2,55.8h-10.5l-5.6-13.6h-26l-5.6,13.6h-9.9L679,126.5z M692.6,160.6
		l-9.3-22.3l-9.3,22.3H692.6z"/>
	<polygon id="Path_10_" class="st0" points="722.4,127.1 732.3,127.1 732.3,182.9 722.4,182.9 	"/>
	<polygon id="Path_11_" class="st0" points="747.2,127.1 755.9,127.1 785.7,165.6 785.7,127.1 795.6,127.1 795.6,182.9 787.5,182.9 
		757.1,143.2 757.1,182.9 747.2,182.9 	"/>
	<path id="binancedex" class="st0" d="M112.9,179.2v24.2l-21.1,12.4l-20.5-12.4v-24.2l20.5,12.4L112.9,179.2z M0,95.5l20.5,12.4
		v41.5l35.3,21.1v24.2L0,161.8V95.5z M183.5,95.5v66.4l-56.4,32.9v-24.2l35.3-21.1v-41.5L183.5,95.5z M127.1,62.6L148.2,75l0,0v24.2
		l-35.3,21.1v42.2l-20.5,12.4l-20.5-12.4v-42.2L35.3,99.2V75l21.1-12.4l35.3,21.1L127.1,62.6z M35.3,116.6L55.8,129v24.2l-20.5-12.4
		V116.6z M148.2,116.6v24.2l-20.5,12.4V129L148.2,116.6z M20.5,41.5l21.1,12.4L20.5,66.4v24.2L0,78.1V53.9L20.5,41.5z M163.1,41.5
		l21.1,12.4v24.2l-21.1,12.4V66.4l-20.5-12.4L163.1,41.5z M91.8,41.5l21.1,12.4L91.8,66.4L71.3,53.9L91.8,41.5z M91.8,0l56.4,32.9
		l-20.5,12.4L92.4,24.2l-36,21.1L36,32.9L91.8,0z"/>
</g>
</svg>
